<svg id="Capa_4" data-name="Capa 4" xmlns="http://www.w3.org/2000/svg" viewBox="0 0 180.68 180.68"><path d="M94.35,5.44a90.34,90.34,0,1,0,90.34,90.34A90.34,90.34,0,0,0,94.35,5.44Zm0,170.22a79.88,79.88,0,1,1,79.87-79.88A79.88,79.88,0,0,1,94.35,175.66Z" transform="translate(-4.01 -5.44)" style="fill:#020024"/><path d="M94.35,30.06a65.72,65.72,0,1,0,65.72,65.72A65.72,65.72,0,0,0,94.35,30.06Zm-.47,119.81a54.56,54.56,0,1,1,54.56-54.56A54.55,54.55,0,0,1,93.88,149.87Z" transform="translate(-4.01 -5.44)" style="fill:#020024"/><path d="M94.35,55.48a40.3,40.3,0,1,0,40.3,40.3A40.3,40.3,0,0,0,94.35,55.48Zm0,69.56A29.26,29.26,0,1,1,123.6,95.78,29.26,29.26,0,0,1,94.35,125Z" transform="translate(-4.01 -5.44)" style="fill:#020024"/><circle cx="90.34" cy="90.34" r="14.89" style="fill:#020024"/></svg>