<svg id="Capa_2" data-name="Capa 2" xmlns="http://www.w3.org/2000/svg" viewBox="0 0 159.26 166.34"><path d="M173.5,170.29V22.22l-9.14-9.13H138.19v48.3c0,7.85-3.18,7.28-3.18,7.28H36.13c-3.76,0-3.53-3.87-3.53-3.87V13.09H21.16a3.76,3.76,0,0,0-3.92,3.3V171.82c0,4.75,2.47,4.61,2.47,4.61H168.8C173.68,176.43,173.5,170.29,173.5,170.29ZM157.1,162a1.83,1.83,0,0,1-1.83,1.83H34.9A1.83,1.83,0,0,1,33.07,162V83.47a1.82,1.82,0,0,1,1.83-1.82H155.27a1.82,1.82,0,0,1,1.83,1.82Z" transform="translate(-15.74 -11.59)" style="fill:#020024;stroke:#020024;stroke-miterlimit:10;stroke-width:3px"/><rect x="89.06" y="10.54" width="19.63" height="42.16" rx="0.51" style="fill:#020024;stroke:#fff;stroke-miterlimit:10"/><path d="M53.9,13.09V69s-.51,4.79,6.43,4.79" transform="translate(-15.74 -11.59)" style="fill:none;stroke:#020024;stroke-miterlimit:10;stroke-width:3px"/><path d="M32.6,142.87" transform="translate(-15.74 -11.59)" style="fill:#020024;stroke:#fff;stroke-miterlimit:10;stroke-width:2px"/><line x1="16.86" y1="1.5" x2="122.45" y2="1.5" style="fill:#020024;stroke:#020024;stroke-miterlimit:10;stroke-width:3px"/></svg>