<svg id="Capa_5" data-name="Capa 5" xmlns="http://www.w3.org/2000/svg" viewBox="0 0 182.99 145.07"><path d="M62.51,105c-.35,16.93,24.41,14.73,24.41,14.73v52.51c-18.14-24.86-43.56-42.93-54-51.81a94.51,94.51,0,0,1-15.8-17c-11-15.32-23.9-41.61,3-64,36.45-30.26,66.82,4.73,66.82,4.73V90.45S62.87,87.07,62.51,105Z" transform="translate(-4.13 -27.16)" style="fill:#020024"/><path d="M104.54,44.2C133,4.66,219.37,42.49,174.4,103.45c-19.46,25.84-42.77,32.18-69.86,68.77" transform="translate(-4.13 -27.16)" style="fill:#020024"/><path d="M105.5,90.46c-32-4.72-32.95,33,0,29.25Z" transform="translate(-4.13 -27.16)" style="fill:#020024"/></svg>