<svg id="Capa_3" data-name="Capa 3" xmlns="http://www.w3.org/2000/svg" viewBox="0 0 179.64 179.85"><path d="M83.67,108.27l-18.42-.22a1.61,1.61,0,0,0-1.62,1.81l-4.24,74.48a.75.75,0,0,1-.74.85l-18.26-.43a.74.74,0,0,1-.73-.62L38,109.61a1.63,1.63,0,0,0-1.59-1.34H24.62a4,4,0,0,1-4-4V94.15a.75.75,0,0,0-.75-.75l-12.5,0a1.79,1.79,0,0,1-1.79-1.79l0-29a1.79,1.79,0,0,1,1.79-1.79H19.84a.75.75,0,0,0,.75-.75V50.81a4,4,0,0,1,4-4H83.67c1.64,0,80.26-33.58,98.05-41.24a2.5,2.5,0,0,1,3.47,2.3L185,147.53a2.34,2.34,0,0,1-3.26,2.15C164.53,142.28,85.3,108.27,83.67,108.27Z" transform="translate(-5.55 -5.34)" style="fill:#020024"/><text transform="translate(66.19 67.6)" style="font-size:21px;fill:#020024;font-family:MyriadPro-Regular, Myriad Pro">N<tspan x="13.82" y="0" style="letter-spacing:0.008998325892857142em">E</tspan><tspan x="24.34" y="0">WS</tspan></text></svg>