<svg id="Capa_1" data-name="Capa 1" xmlns="http://www.w3.org/2000/svg" viewBox="0 0 16 16"><path d="M.61,6.92v7.43a.55.55,0,0,0,.57.52c.56,0,7.05,0,7.05,0Z" style="fill:#2c2f74"/><path d="M5,11.46l7.12-4.87a.58.58,0,0,1,.15.27c0,.15,0,1.71,0,1.71s0,0,0,0L14.64,7a.77.77,0,0,1,.32,0,.53.53,0,0,1,.43.47v6.43s0,.45-.35.51a1,1,0,0,1-.77-.28l-2-1.37s0,0,0,0v1.7a.43.43,0,0,1-.45.46H8.23Z" style="fill:#505ca7"/><path d="M11.7,6.41h-.53s0,0,0,0a2.55,2.55,0,0,0,.42-2.15,2.74,2.74,0,0,0-1.11-1.6,2.8,2.8,0,0,0-1.9-.39A2.13,2.13,0,0,0,7.21,3s0,0,0,0l0,0A3.13,3.13,0,0,0,5.4,1.32,3.2,3.2,0,0,0,3.58,1.2,3,3,0,0,0,2,2.09,3.33,3.33,0,0,0,1.14,3.8a3.68,3.68,0,0,0,0,1A4,4,0,0,0,2,6.4h-.9c-.49,0-.44.51-.44.51L5,11.46H5l7.12-4.87A.5.5,0,0,0,11.7,6.41Zm-7.4,0A2.12,2.12,0,1,1,6.42,4.3,2.12,2.12,0,0,1,4.3,6.42Zm4.77,0a1.6,1.6,0,1,1,0-3.19,1.6,1.6,0,0,1,0,3.19Z" style="fill:#88b0dc"/></svg>