<svg id="Capa_3" data-name="Capa 3" xmlns="http://www.w3.org/2000/svg" xmlns:xlink="http://www.w3.org/1999/xlink" viewBox="0 0 64.29 65.41"><defs><clipPath id="clip-path" transform="translate(-517.71 -28.06)"><circle cx="549.86" cy="60.2" r="32.14"/></clipPath></defs><circle cx="32.14" cy="32.14" r="32.14"/><g style="clip-path:url(#clip-path)"><path d="M558.62,91.14V78.9a7.07,7.07,0,0,0-2.28-4.57s0,0,0,0a19,19,0,0,0,11.79-5.15c5-5,2.47-15,2.47-15a8.73,8.73,0,0,0-2.85-4.5s0,0,0,0a7.36,7.36,0,0,0,.72-3.57,16.7,16.7,0,0,0-1.07-5.19h0s-2.51-1.15-8.76,3.4h0s-6.43-2.42-16.47,0h0s-4.47-3.49-9-3.49h0s-2.08,5.33-.3,8.72h0s-4.67,3.69-3.06,12.43S536.51,72,536.51,72s6.08,2.35,7.79,2.3c0,0,0,0,0,0-.23.26-2,2.27-1.93,4.31h0s-3,1.19-4.25.94A6.32,6.32,0,0,1,533.62,77c-1.53-2-2.78-3.45-3.72-3.67a8.12,8.12,0,0,0-3.2-.3.05.05,0,0,0,0,.07c.2.33,1.5,1.28,2.37,2.39a18.15,18.15,0,0,1,2.34,4.06c.26.7,1.34,2.81,3.3,3.26a18.56,18.56,0,0,0,7.46.43s.07,0,.07,0v8.11a16,16,0,0,0,8,2A17.18,17.18,0,0,0,558.62,91.14Z" transform="translate(-517.71 -28.06)" style="fill:#fff"/></g></svg>