<svg xmlns="http://www.w3.org/2000/svg" viewBox="0 0 447.71 416.55"><g id="Capa_1" data-name="Capa 1"><path d="M528.68,501.11V726s.51,15.07,17.36,15.83,213.45-.25,213.45-.25Z" transform="translate(-528.64 -325.61)" style="fill:#25257c"/></g><g id="Capa_2" data-name="Capa 2"><path d="M660.5,638.61,875.91,491.15s4.09,3.91,4.6,8.34,0,51.57,0,51.57.26,1.43,1.66.41,71.36-48.83,71.36-48.83a22.16,22.16,0,0,1,9.79-1c4.94.76,13.11,6.38,13,14.12s0,194.73,0,194.73-.17,13.44-10.72,15.27-17.83-4.42-23.19-8.25S881,675.87,881,675.87s-.68-.34-.68.36v51.34s.43,14-13.68,14H759.49Z" transform="translate(-528.64 -325.61)" style="fill:#505dbc"/></g><g id="Capa_3" data-name="Capa 3"><path d="M864.62,485.8s-14.57,0-15,0a1.36,1.36,0,0,1-1.25-.43c-.21-.35.64-1,.64-1,6.51-5.74,20.17-32.81,12.76-65.23s-33.57-48.43-33.57-48.43S801.62,352.94,770.55,359s-42,21.75-42.06,22.06-.6.82-.93.75-.67-.85-.67-.85c-6.21-14.47-23.57-38.39-53.19-49.28s-55.15-3.75-55.15-3.75-28.25,4.09-49.32,26.9-24.29,51.91-24.29,51.91-2,8.34.59,30.56,23.7,48,23.7,48.27-.46.32-.46.32H542.13c-15,0-13.45,15.24-13.45,15.24L660.5,638.61l.08-.06,215.33-147.4A15.11,15.11,0,0,0,864.62,485.8ZM640.43,486A64.09,64.09,0,1,1,704.51,422,64.08,64.08,0,0,1,640.43,486Zm144.37,0a48.35,48.35,0,1,1,48.35-48.35A48.34,48.34,0,0,1,784.8,486Z" transform="translate(-528.64 -325.61)" style="fill:#89b0db"/></g></svg>