<svg xmlns="http://www.w3.org/2000/svg" xmlns:xlink="http://www.w3.org/1999/xlink" viewBox="0 0 41.62 33.1"><defs><clipPath id="clip-path" transform="translate(-371.27 -46.28)"><circle cx="390.58" cy="61.2" r="32.14" style="fill:none"/></clipPath></defs><g id="Capa_2" data-name="Capa 2"><g style="clip-path:url(#clip-path)"><path d="M412.89,50.27a20.14,20.14,0,0,1-4.77,1.36S411.4,49,411.66,47c0,0-4.26,2-5.28,2s-2.34-3.23-7.79-2.64-7.1,6.43-7.1,6.43a15.86,15.86,0,0,0-.13,3.39.49.49,0,0,0,.13.27s-6.83,2-17.41-8.56c0,0-3.76,6.06,2.39,11.33a7.16,7.16,0,0,1-3.53-1s-.87,5.88,6.38,8.49c0,0-3,.53-3.52,0,0,0,1.92,6.1,7.86,6.1,0,0-3.32,3.48-12.39,3.48,0,0,8.11,4,17,3A26.42,26.42,0,0,0,401,74.14s9.69-8.68,7.52-19.36C408.51,54.78,412,51.93,412.89,50.27Z" transform="translate(-371.27 -46.28)" style="fill:#fff"/></g></g></svg>